<svg xmlns="http://www.w3.org/2000/svg" xmlns:xlink="http://www.w3.org/1999/xlink" viewBox="0 0 414.74 414.74"><defs><style>.cls-1{fill:url(#linear-gradient);}.cls-2{fill:url(#linear-gradient-2);}.cls-3{fill:url(#linear-gradient-3);}.cls-4{fill:url(#linear-gradient-4);}.cls-5{fill:url(#linear-gradient-5);}.cls-6{fill:url(#linear-gradient-6);}.cls-7{fill:url(#linear-gradient-7);}</style><linearGradient id="linear-gradient" x1="204.27" y1="0.65" x2="209.11" y2="477.52" gradientUnits="userSpaceOnUse"><stop offset="0.03" stop-color="#3ff1ff"/><stop offset="0.77" stop-color="#ff0e93"/><stop offset="1" stop-color="#fe0f8c"/><stop offset="1" stop-color="#ed1c24"/></linearGradient><linearGradient id="linear-gradient-2" x1="203.6" y1="0.66" x2="208.44" y2="477.53" xlink:href="#linear-gradient"/><linearGradient id="linear-gradient-3" x1="203.93" y1="0.66" x2="208.77" y2="477.52" xlink:href="#linear-gradient"/><linearGradient id="linear-gradient-4" x1="204.6" y1="0.65" x2="209.44" y2="477.52" xlink:href="#linear-gradient"/><linearGradient id="linear-gradient-5" x1="203.26" y1="0.66" x2="208.1" y2="477.53" xlink:href="#linear-gradient"/><linearGradient id="linear-gradient-6" x1="205.02" y1="0.64" x2="209.86" y2="477.51" xlink:href="#linear-gradient"/><linearGradient id="linear-gradient-7" x1="205.27" y1="0.64" x2="210.11" y2="477.51" xlink:href="#linear-gradient"/></defs><title>neonsun</title><g id="Layer_2" data-name="Layer 2"><g id="Layer_1-2" data-name="Layer 1"><path class="cls-1" d="M25,306.08a205.73,205.73,0,0,0,11.55,18.8H378.23a208,208,0,0,0,11.55-18.8Z"/><path class="cls-2" d="M333.36,372.07h-252a207.88,207.88,0,0,0,29.35,18.8H304A207.41,207.41,0,0,0,333.36,372.07Z"/><path class="cls-3" d="M47.19,339.08a210.69,210.69,0,0,0,17.54,18.8H350a209.12,209.12,0,0,0,17.53-18.8Z"/><path class="cls-4" d="M10.64,273.09q3.21,9.62,7.32,18.8H396.78q4.1-9.18,7.32-18.8Z"/><path class="cls-5" d="M144.63,405.06a208.16,208.16,0,0,0,125.48,0Z"/><path class="cls-6" d="M4.65,251.18H410.08q2-9.26,3.15-18.8H1.51C2.27,238.74,3.33,245,4.65,251.18Z"/><path class="cls-7" d="M414.7,210.47c0-1,0-2.07,0-3.1C414.74,92.84,321.89,0,207.37,0S0,92.84,0,207.37c0,1,0,2.07,0,3.1Z"/></g></g></svg>